<mxfile host="www.draw.io" modified="2020-02-13T04:35:49.637Z" agent="Mozilla/5.0 (Windows NT 10.0; Win64; x64) AppleWebKit/537.36 (KHTML, like Gecko) Chrome/80.0.3987.100 Safari/537.36" etag="V6IOiu_5sVeGqeYBhtv5" version="12.6.8" type="github" pages="4">
  <diagram id="3hFOW5Z3R_mzYnu1O9PT" name="4.1: Display Client Selection Screen">
    <mxGraphModel dx="1038" dy="580" grid="1" gridSize="10" guides="1" tooltips="1" connect="1" arrows="1" fold="1" page="1" pageScale="1" pageWidth="850" pageHeight="1100" math="0" shadow="0">
      <root>
        <mxCell id="0"/>
        <mxCell id="1" parent="0"/>
        <mxCell id="-jC7UEGRpU7TpvFKTlhZ-1" value="4.1&lt;br&gt;Display Client Selection Screen" style="whiteSpace=wrap;html=1;aspect=fixed;" vertex="1" parent="1">
          <mxGeometry x="350" y="50" width="80" height="80" as="geometry"/>
        </mxCell>
        <mxCell id="-jC7UEGRpU7TpvFKTlhZ-2" value="" style="endArrow=classic;html=1;" edge="1" parent="1">
          <mxGeometry width="50" height="50" relative="1" as="geometry">
            <mxPoint x="180" y="490" as="sourcePoint"/>
            <mxPoint x="180" y="490" as="targetPoint"/>
          </mxGeometry>
        </mxCell>
        <mxCell id="-jC7UEGRpU7TpvFKTlhZ-3" value="4.1.3&lt;br&gt;Display Search Box for Client Selection" style="whiteSpace=wrap;html=1;aspect=fixed;" vertex="1" parent="1">
          <mxGeometry x="480" y="250" width="80" height="80" as="geometry"/>
        </mxCell>
        <mxCell id="-jC7UEGRpU7TpvFKTlhZ-4" value="" style="endArrow=classic;html=1;exitX=0;exitY=1;exitDx=0;exitDy=0;entryX=0.5;entryY=0;entryDx=0;entryDy=0;strokeWidth=2;" edge="1" parent="1" source="-jC7UEGRpU7TpvFKTlhZ-11" target="-jC7UEGRpU7TpvFKTlhZ-10">
          <mxGeometry width="50" height="50" relative="1" as="geometry">
            <mxPoint x="260" y="390" as="sourcePoint"/>
            <mxPoint x="190" y="450" as="targetPoint"/>
          </mxGeometry>
        </mxCell>
        <mxCell id="-jC7UEGRpU7TpvFKTlhZ-5" value="" style="endArrow=classic;html=1;exitX=0.75;exitY=1;exitDx=0;exitDy=0;strokeWidth=2;entryX=0.5;entryY=0;entryDx=0;entryDy=0;" edge="1" parent="1" source="-jC7UEGRpU7TpvFKTlhZ-1" target="-jC7UEGRpU7TpvFKTlhZ-3">
          <mxGeometry width="50" height="50" relative="1" as="geometry">
            <mxPoint x="490" y="220" as="sourcePoint"/>
            <mxPoint x="515" y="250" as="targetPoint"/>
          </mxGeometry>
        </mxCell>
        <mxCell id="-jC7UEGRpU7TpvFKTlhZ-6" value="" style="endArrow=classic;html=1;exitX=0.25;exitY=1;exitDx=0;exitDy=0;entryX=0.5;entryY=0;entryDx=0;entryDy=0;strokeWidth=2;" edge="1" parent="1" source="-jC7UEGRpU7TpvFKTlhZ-1" target="-jC7UEGRpU7TpvFKTlhZ-8">
          <mxGeometry width="50" height="50" relative="1" as="geometry">
            <mxPoint x="240" y="170" as="sourcePoint"/>
            <mxPoint x="90" y="250" as="targetPoint"/>
          </mxGeometry>
        </mxCell>
        <mxCell id="-jC7UEGRpU7TpvFKTlhZ-7" value="" style="endArrow=classic;html=1;strokeWidth=2;entryX=0.5;entryY=0;entryDx=0;entryDy=0;exitX=1;exitY=1;exitDx=0;exitDy=0;" edge="1" parent="1" source="-jC7UEGRpU7TpvFKTlhZ-11" target="-jC7UEGRpU7TpvFKTlhZ-9">
          <mxGeometry width="50" height="50" relative="1" as="geometry">
            <mxPoint x="180" y="360" as="sourcePoint"/>
            <mxPoint x="80" y="450" as="targetPoint"/>
          </mxGeometry>
        </mxCell>
        <mxCell id="-jC7UEGRpU7TpvFKTlhZ-8" value="&lt;span style=&quot;white-space: normal&quot;&gt;1.1.1&lt;br&gt;&lt;/span&gt;Authenticate User" style="shape=process;whiteSpace=wrap;html=1;backgroundOutline=1;" vertex="1" parent="1">
          <mxGeometry x="185" y="250" width="90" height="80" as="geometry"/>
        </mxCell>
        <mxCell id="-jC7UEGRpU7TpvFKTlhZ-9" value="1.1.1.2&lt;br&gt;Deny Access" style="shape=process;whiteSpace=wrap;html=1;backgroundOutline=1;" vertex="1" parent="1">
          <mxGeometry x="185" y="400" width="90" height="80" as="geometry"/>
        </mxCell>
        <mxCell id="-jC7UEGRpU7TpvFKTlhZ-10" value="1.1.1.1&lt;br&gt;Allow Access" style="shape=process;whiteSpace=wrap;html=1;backgroundOutline=1;" vertex="1" parent="1">
          <mxGeometry x="80" y="400" width="90" height="80" as="geometry"/>
        </mxCell>
        <mxCell id="-jC7UEGRpU7TpvFKTlhZ-11" value="" style="rhombus;whiteSpace=wrap;html=1;fillColor=#FFFFFF;" vertex="1" parent="1">
          <mxGeometry x="220" y="315" width="20" height="30" as="geometry"/>
        </mxCell>
        <mxCell id="-jC7UEGRpU7TpvFKTlhZ-12" value="" style="endArrow=classic;html=1;" edge="1" parent="1">
          <mxGeometry width="50" height="50" relative="1" as="geometry">
            <mxPoint x="400" y="495" as="sourcePoint"/>
            <mxPoint x="400" y="495" as="targetPoint"/>
          </mxGeometry>
        </mxCell>
        <mxCell id="-jC7UEGRpU7TpvFKTlhZ-13" value="" style="endArrow=classic;html=1;exitX=0;exitY=1;exitDx=0;exitDy=0;strokeWidth=2;entryX=0.5;entryY=0;entryDx=0;entryDy=0;" edge="1" parent="1" source="-jC7UEGRpU7TpvFKTlhZ-16" target="-jC7UEGRpU7TpvFKTlhZ-18">
          <mxGeometry width="50" height="50" relative="1" as="geometry">
            <mxPoint x="475" y="390" as="sourcePoint"/>
            <mxPoint x="310" y="420" as="targetPoint"/>
          </mxGeometry>
        </mxCell>
        <mxCell id="-jC7UEGRpU7TpvFKTlhZ-14" value="" style="endArrow=classic;html=1;strokeWidth=2;exitX=1;exitY=1;exitDx=0;exitDy=0;entryX=0.5;entryY=0;entryDx=0;entryDy=0;" edge="1" parent="1" source="-jC7UEGRpU7TpvFKTlhZ-16" target="-jC7UEGRpU7TpvFKTlhZ-19">
          <mxGeometry width="50" height="50" relative="1" as="geometry">
            <mxPoint x="395" y="360" as="sourcePoint"/>
            <mxPoint x="430" y="410" as="targetPoint"/>
          </mxGeometry>
        </mxCell>
        <mxCell id="-jC7UEGRpU7TpvFKTlhZ-15" value="&lt;span style=&quot;white-space: normal&quot;&gt;1.1.2&lt;br&gt;&lt;/span&gt;Authenticate User Type" style="shape=process;whiteSpace=wrap;html=1;backgroundOutline=1;" vertex="1" parent="1">
          <mxGeometry x="345" y="250" width="90" height="80" as="geometry"/>
        </mxCell>
        <mxCell id="-jC7UEGRpU7TpvFKTlhZ-16" value="" style="rhombus;whiteSpace=wrap;html=1;fillColor=#FFFFFF;" vertex="1" parent="1">
          <mxGeometry x="380" y="315" width="20" height="30" as="geometry"/>
        </mxCell>
        <mxCell id="-jC7UEGRpU7TpvFKTlhZ-17" value="" style="endArrow=classic;html=1;exitX=0.5;exitY=1;exitDx=0;exitDy=0;entryX=0.5;entryY=0;entryDx=0;entryDy=0;strokeWidth=2;" edge="1" parent="1" source="-jC7UEGRpU7TpvFKTlhZ-1" target="-jC7UEGRpU7TpvFKTlhZ-15">
          <mxGeometry width="50" height="50" relative="1" as="geometry">
            <mxPoint x="397.5" y="150" as="sourcePoint"/>
            <mxPoint x="192.5" y="270" as="targetPoint"/>
          </mxGeometry>
        </mxCell>
        <mxCell id="-jC7UEGRpU7TpvFKTlhZ-18" value="1.1.1.1&lt;br&gt;Allow Access" style="shape=process;whiteSpace=wrap;html=1;backgroundOutline=1;" vertex="1" parent="1">
          <mxGeometry x="290" y="400" width="90" height="80" as="geometry"/>
        </mxCell>
        <mxCell id="-jC7UEGRpU7TpvFKTlhZ-19" value="1.1.1.2&lt;br&gt;Deny Access" style="shape=process;whiteSpace=wrap;html=1;backgroundOutline=1;" vertex="1" parent="1">
          <mxGeometry x="400" y="400" width="90" height="80" as="geometry"/>
        </mxCell>
      </root>
    </mxGraphModel>
  </diagram>
  <diagram id="F1RM_9q_jcx5Py3mtiUx" name="4.2: Display List of Matching Clients">
    <mxGraphModel dx="1221" dy="682" grid="1" gridSize="10" guides="1" tooltips="1" connect="1" arrows="1" fold="1" page="1" pageScale="1" pageWidth="850" pageHeight="1100" math="0" shadow="0">
      <root>
        <mxCell id="-Nr-P25xU1xOzqZdTJlo-0"/>
        <mxCell id="-Nr-P25xU1xOzqZdTJlo-1" parent="-Nr-P25xU1xOzqZdTJlo-0"/>
        <mxCell id="dCQ53-PawWf8rJ2kzAHl-10" value="4.2&lt;br&gt;Display List of Matching Clients" style="whiteSpace=wrap;html=1;aspect=fixed;" vertex="1" parent="-Nr-P25xU1xOzqZdTJlo-1">
          <mxGeometry x="365" y="60" width="80" height="80" as="geometry"/>
        </mxCell>
        <mxCell id="dCQ53-PawWf8rJ2kzAHl-12" value="4.2.3&lt;br&gt;Display List of Clients Matching Search" style="whiteSpace=wrap;html=1;aspect=fixed;" vertex="1" parent="-Nr-P25xU1xOzqZdTJlo-1">
          <mxGeometry x="480" y="260" width="80" height="80" as="geometry"/>
        </mxCell>
        <mxCell id="dCQ53-PawWf8rJ2kzAHl-13" value="" style="endArrow=classic;html=1;exitX=0.75;exitY=1;exitDx=0;exitDy=0;strokeWidth=2;entryX=0.5;entryY=0;entryDx=0;entryDy=0;" edge="1" parent="-Nr-P25xU1xOzqZdTJlo-1" source="dCQ53-PawWf8rJ2kzAHl-10" target="dCQ53-PawWf8rJ2kzAHl-12">
          <mxGeometry width="50" height="50" relative="1" as="geometry">
            <mxPoint x="500" y="230" as="sourcePoint"/>
            <mxPoint x="525" y="260" as="targetPoint"/>
          </mxGeometry>
        </mxCell>
        <mxCell id="dCQ53-PawWf8rJ2kzAHl-14" value="" style="endArrow=classic;html=1;exitX=0.25;exitY=1;exitDx=0;exitDy=0;entryX=0.5;entryY=0;entryDx=0;entryDy=0;strokeWidth=2;" edge="1" parent="-Nr-P25xU1xOzqZdTJlo-1" source="dCQ53-PawWf8rJ2kzAHl-10" target="dCQ53-PawWf8rJ2kzAHl-19">
          <mxGeometry width="50" height="50" relative="1" as="geometry">
            <mxPoint x="250" y="180" as="sourcePoint"/>
            <mxPoint x="240" y="260" as="targetPoint"/>
          </mxGeometry>
        </mxCell>
        <mxCell id="dCQ53-PawWf8rJ2kzAHl-15" value="" style="endArrow=classic;html=1;exitX=0.5;exitY=1;exitDx=0;exitDy=0;entryX=0.5;entryY=0;entryDx=0;entryDy=0;strokeWidth=2;" edge="1" parent="-Nr-P25xU1xOzqZdTJlo-1" source="dCQ53-PawWf8rJ2kzAHl-10" target="dCQ53-PawWf8rJ2kzAHl-18">
          <mxGeometry width="50" height="50" relative="1" as="geometry">
            <mxPoint x="407.5" y="160" as="sourcePoint"/>
            <mxPoint x="400" y="260" as="targetPoint"/>
          </mxGeometry>
        </mxCell>
        <mxCell id="dCQ53-PawWf8rJ2kzAHl-16" value="3.2.2.1&lt;br&gt;Retrieve Records for Clients that Match Search" style="shape=process;whiteSpace=wrap;html=1;backgroundOutline=1;" vertex="1" parent="-Nr-P25xU1xOzqZdTJlo-1">
          <mxGeometry x="355" y="400" width="100" height="90" as="geometry"/>
        </mxCell>
        <mxCell id="dCQ53-PawWf8rJ2kzAHl-17" value="" style="endArrow=classic;html=1;strokeWidth=2;entryX=0.5;entryY=0;entryDx=0;entryDy=0;exitX=0.5;exitY=1;exitDx=0;exitDy=0;" edge="1" parent="-Nr-P25xU1xOzqZdTJlo-1" source="dCQ53-PawWf8rJ2kzAHl-18" target="dCQ53-PawWf8rJ2kzAHl-16">
          <mxGeometry width="50" height="50" relative="1" as="geometry">
            <mxPoint x="320" y="340" as="sourcePoint"/>
            <mxPoint x="425" y="432.5" as="targetPoint"/>
          </mxGeometry>
        </mxCell>
        <mxCell id="dCQ53-PawWf8rJ2kzAHl-18" value="1.1.4&lt;br&gt;Get Required Information from Database" style="shape=process;whiteSpace=wrap;html=1;backgroundOutline=1;" vertex="1" parent="-Nr-P25xU1xOzqZdTJlo-1">
          <mxGeometry x="360" y="260" width="90" height="90" as="geometry"/>
        </mxCell>
        <mxCell id="dCQ53-PawWf8rJ2kzAHl-19" value="1.1.3&lt;br&gt;Connect to Database" style="shape=process;whiteSpace=wrap;html=1;backgroundOutline=1;" vertex="1" parent="-Nr-P25xU1xOzqZdTJlo-1">
          <mxGeometry x="230" y="260" width="90" height="80" as="geometry"/>
        </mxCell>
      </root>
    </mxGraphModel>
  </diagram>
  <diagram id="xISIQRQe_gho9sSVnVKx" name="4.3: Retrieve Client Information">
    <mxGraphModel dx="1038" dy="580" grid="1" gridSize="10" guides="1" tooltips="1" connect="1" arrows="1" fold="1" page="1" pageScale="1" pageWidth="850" pageHeight="1100" math="0" shadow="0">
      <root>
        <mxCell id="cdTqETiYfnMIgkRR2k1p-0"/>
        <mxCell id="cdTqETiYfnMIgkRR2k1p-1" parent="cdTqETiYfnMIgkRR2k1p-0"/>
        <mxCell id="aB-P10DCuMT9wa6v4tdq-0" value="4.3&lt;br&gt;Retrieve Client Information" style="whiteSpace=wrap;html=1;aspect=fixed;" vertex="1" parent="cdTqETiYfnMIgkRR2k1p-1">
          <mxGeometry x="355" y="50" width="80" height="80" as="geometry"/>
        </mxCell>
        <mxCell id="aB-P10DCuMT9wa6v4tdq-1" value="4.3.2&lt;br&gt;Display Information of Selected Client to be Edited" style="whiteSpace=wrap;html=1;aspect=fixed;" vertex="1" parent="cdTqETiYfnMIgkRR2k1p-1">
          <mxGeometry x="410" y="250" width="90" height="90" as="geometry"/>
        </mxCell>
        <mxCell id="aB-P10DCuMT9wa6v4tdq-2" value="" style="endArrow=classic;html=1;exitX=0.75;exitY=1;exitDx=0;exitDy=0;strokeWidth=2;entryX=0.5;entryY=0;entryDx=0;entryDy=0;" edge="1" parent="cdTqETiYfnMIgkRR2k1p-1" source="aB-P10DCuMT9wa6v4tdq-0" target="aB-P10DCuMT9wa6v4tdq-1">
          <mxGeometry width="50" height="50" relative="1" as="geometry">
            <mxPoint x="490" y="220" as="sourcePoint"/>
            <mxPoint x="515" y="250" as="targetPoint"/>
          </mxGeometry>
        </mxCell>
        <mxCell id="aB-P10DCuMT9wa6v4tdq-3" value="" style="endArrow=classic;html=1;exitX=0.25;exitY=1;exitDx=0;exitDy=0;entryX=0.5;entryY=0;entryDx=0;entryDy=0;strokeWidth=2;" edge="1" parent="cdTqETiYfnMIgkRR2k1p-1" source="aB-P10DCuMT9wa6v4tdq-0" target="aB-P10DCuMT9wa6v4tdq-5">
          <mxGeometry width="50" height="50" relative="1" as="geometry">
            <mxPoint x="397.5" y="150" as="sourcePoint"/>
            <mxPoint x="390" y="250" as="targetPoint"/>
          </mxGeometry>
        </mxCell>
        <mxCell id="aB-P10DCuMT9wa6v4tdq-4" value="" style="endArrow=classic;html=1;strokeWidth=2;entryX=0.5;entryY=0;entryDx=0;entryDy=0;exitX=0.5;exitY=1;exitDx=0;exitDy=0;" edge="1" parent="cdTqETiYfnMIgkRR2k1p-1" source="aB-P10DCuMT9wa6v4tdq-5" target="aB-P10DCuMT9wa6v4tdq-6">
          <mxGeometry width="50" height="50" relative="1" as="geometry">
            <mxPoint x="360" y="330" as="sourcePoint"/>
            <mxPoint x="325" y="400" as="targetPoint"/>
          </mxGeometry>
        </mxCell>
        <mxCell id="aB-P10DCuMT9wa6v4tdq-5" value="1.1.4&lt;br&gt;Get Required Information from Database" style="shape=process;whiteSpace=wrap;html=1;backgroundOutline=1;" vertex="1" parent="cdTqETiYfnMIgkRR2k1p-1">
          <mxGeometry x="290" y="250" width="90" height="90" as="geometry"/>
        </mxCell>
        <mxCell id="aB-P10DCuMT9wa6v4tdq-6" value="4.3.1.1&lt;br&gt;Retrieve Record of Selected Client" style="whiteSpace=wrap;html=1;aspect=fixed;" vertex="1" parent="cdTqETiYfnMIgkRR2k1p-1">
          <mxGeometry x="240" y="390" width="80" height="80" as="geometry"/>
        </mxCell>
        <mxCell id="aB-P10DCuMT9wa6v4tdq-8" value="" style="endArrow=classic;html=1;strokeWidth=2;entryX=0.5;entryY=0;entryDx=0;entryDy=0;exitX=0.5;exitY=1;exitDx=0;exitDy=0;" edge="1" parent="cdTqETiYfnMIgkRR2k1p-1" source="aB-P10DCuMT9wa6v4tdq-5" target="aB-P10DCuMT9wa6v4tdq-18">
          <mxGeometry width="50" height="50" relative="1" as="geometry">
            <mxPoint x="345" y="350" as="sourcePoint"/>
            <mxPoint x="395" y="390" as="targetPoint"/>
          </mxGeometry>
        </mxCell>
        <mxCell id="aB-P10DCuMT9wa6v4tdq-18" value="2.1.4.1&lt;br&gt;Retrieve List of Group Homes from Group Home Table" style="shape=process;whiteSpace=wrap;html=1;backgroundOutline=1;" vertex="1" parent="cdTqETiYfnMIgkRR2k1p-1">
          <mxGeometry x="345" y="390" width="100" height="90" as="geometry"/>
        </mxCell>
      </root>
    </mxGraphModel>
  </diagram>
  <diagram id="CuqavR4DMDMTF4DsStrx" name="4.4 Update Client Record">
    <mxGraphModel dx="1038" dy="580" grid="1" gridSize="10" guides="1" tooltips="1" connect="1" arrows="1" fold="1" page="1" pageScale="1" pageWidth="850" pageHeight="1100" math="0" shadow="0">
      <root>
        <mxCell id="yxSIzBH1ZKQiKf1x3kyn-0"/>
        <mxCell id="yxSIzBH1ZKQiKf1x3kyn-1" parent="yxSIzBH1ZKQiKf1x3kyn-0"/>
        <mxCell id="6GKBgPLEXWyGjKQGTRla-0" value="4.4&lt;br&gt;Update Client Record" style="whiteSpace=wrap;html=1;aspect=fixed;" vertex="1" parent="yxSIzBH1ZKQiKf1x3kyn-1">
          <mxGeometry x="420" y="70" width="80" height="80" as="geometry"/>
        </mxCell>
        <mxCell id="6GKBgPLEXWyGjKQGTRla-1" value="" style="endArrow=classic;html=1;exitX=0.25;exitY=1;exitDx=0;exitDy=0;entryX=0.5;entryY=0;entryDx=0;entryDy=0;strokeWidth=2;" edge="1" parent="yxSIzBH1ZKQiKf1x3kyn-1" source="6GKBgPLEXWyGjKQGTRla-0" target="6GKBgPLEXWyGjKQGTRla-2">
          <mxGeometry width="50" height="50" relative="1" as="geometry">
            <mxPoint x="310" y="190" as="sourcePoint"/>
            <mxPoint x="160" y="270" as="targetPoint"/>
          </mxGeometry>
        </mxCell>
        <mxCell id="6GKBgPLEXWyGjKQGTRla-2" value="&lt;span style=&quot;white-space: normal&quot;&gt;1.2.1&lt;br&gt;&lt;/span&gt;Retrieve Submitted Form Data" style="shape=process;whiteSpace=wrap;html=1;backgroundOutline=1;" vertex="1" parent="yxSIzBH1ZKQiKf1x3kyn-1">
          <mxGeometry x="290" y="270" width="90" height="80" as="geometry"/>
        </mxCell>
        <mxCell id="6GKBgPLEXWyGjKQGTRla-3" value="&lt;span style=&quot;white-space: normal&quot;&gt;1.2.2&lt;br&gt;&lt;/span&gt;Verify Submitted Form Data" style="shape=process;whiteSpace=wrap;html=1;backgroundOutline=1;" vertex="1" parent="yxSIzBH1ZKQiKf1x3kyn-1">
          <mxGeometry x="415" y="270" width="90" height="80" as="geometry"/>
        </mxCell>
        <mxCell id="6GKBgPLEXWyGjKQGTRla-4" value="" style="endArrow=classic;html=1;exitX=0.5;exitY=1;exitDx=0;exitDy=0;entryX=0.5;entryY=0;entryDx=0;entryDy=0;strokeWidth=2;" edge="1" parent="yxSIzBH1ZKQiKf1x3kyn-1" source="6GKBgPLEXWyGjKQGTRla-0" target="6GKBgPLEXWyGjKQGTRla-3">
          <mxGeometry width="50" height="50" relative="1" as="geometry">
            <mxPoint x="467.5" y="170" as="sourcePoint"/>
            <mxPoint x="262.5" y="290" as="targetPoint"/>
          </mxGeometry>
        </mxCell>
        <mxCell id="6GKBgPLEXWyGjKQGTRla-5" value="" style="endArrow=classic;html=1;strokeWidth=2;entryX=0.5;entryY=0;entryDx=0;entryDy=0;exitX=0.75;exitY=1;exitDx=0;exitDy=0;" edge="1" parent="yxSIzBH1ZKQiKf1x3kyn-1" source="6GKBgPLEXWyGjKQGTRla-0" target="6GKBgPLEXWyGjKQGTRla-6">
          <mxGeometry width="50" height="50" relative="1" as="geometry">
            <mxPoint x="480" y="130" as="sourcePoint"/>
            <mxPoint x="560" y="270" as="targetPoint"/>
          </mxGeometry>
        </mxCell>
        <mxCell id="6GKBgPLEXWyGjKQGTRla-6" value="4.4.3&lt;br&gt;Update Client Record with Submitted Form Data" style="whiteSpace=wrap;html=1;aspect=fixed;" vertex="1" parent="yxSIzBH1ZKQiKf1x3kyn-1">
          <mxGeometry x="540" y="270" width="90" height="90" as="geometry"/>
        </mxCell>
        <mxCell id="6GKBgPLEXWyGjKQGTRla-7" value="" style="endArrow=classic;html=1;curved=1;" edge="1" parent="yxSIzBH1ZKQiKf1x3kyn-1">
          <mxGeometry width="50" height="50" relative="1" as="geometry">
            <mxPoint x="455" y="149.9999999999999" as="sourcePoint"/>
            <mxPoint x="430" y="150" as="targetPoint"/>
            <Array as="points">
              <mxPoint x="490" y="160"/>
              <mxPoint x="470" y="180"/>
              <mxPoint x="410" y="180"/>
              <mxPoint x="400" y="160"/>
            </Array>
          </mxGeometry>
        </mxCell>
      </root>
    </mxGraphModel>
  </diagram>
</mxfile>
